# xmcd
#
# Track frame offsets:
#	150
#	12850
#	22653
#	36455
#	56272
#	70029
#	83090
#	92350
#	103343
#	115390
#	125342
#	136565
#	146386
#	158093
#	165634
#	175906
#	188834
#	199456
#	213277
#	223794
#	236443
#	248205
#	259566
#	270995
#	280546
#	295582
#	305960
#
# Disc length: 4246 seconds
#
# Revision: 1
# Processed by: cddbd v1.5.2PL0 Copyright (c) Steve Scherf et al.
# Submitted via: audiograbber 1.83.01
#
DISCID=7210941b
DTITLE=Slim Harpo - Buzzin' The Blues - The Complete Slim Harpo (Disk 3)
DYEAR=1976
DGENRE=Blues
TTITLE0=One Of These Days
TTITLE1=That Ain't Your Business
TTITLE2=I'm A King Bee (Alt.)
TTITLE3=This Ain't No Place For Me
TTITLE4=I Got Love If You Want It
TTITLE5=Things Gonna Change
TTITLE6=Wondering And Worryin' (Alt. 1)
TTITLE7=Strange Love
TTITLE8=Wondering And Worryin' (Alt. 2)
TTITLE9=One More Day (Alt. 1)
TTITLE10=Late Last Night (Alt. 1)
TTITLE11=Cigarettes
TTITLE12=One More Day (Alt. 2)
TTITLE13=Bobby Sox Baby (Alt.)
TTITLE14=Buzz Me Baby (Alt.)
TTITLE15=Late Last Night (Alt. 2)
TTITLE16=That Ain't Your Business
TTITLE17=Things Gonna Change
TTITLE18=Talking Blues (aka Blues Hangover)
TTITLE19=What's Goin' On
TTITLE20=You Ain't Never Had To Cry (aka Don't Start Cryin' Now)
TTITLE21=That's Alright (You'll Be Sorry One Day)
TTITLE22=That's Alright (Alt.)
TTITLE23=Yeah Yeah Baby
TTITLE24=Dream Girl (Alt.)
TTITLE25=Don't Start Cryin' Now (Alt.)
TTITLE26=Blues Hangover (Alt.)
EXTD=
EXTT0=
EXTT1=
EXTT2=
EXTT3=
EXTT4=
EXTT5=
EXTT6=
EXTT7=
EXTT8=
EXTT9=
EXTT10=
EXTT11=
EXTT12=
EXTT13=
EXTT14=
EXTT15=
EXTT16=
EXTT17=
EXTT18=
EXTT19=
EXTT20=
EXTT21=
EXTT22=
EXTT23=
EXTT24=
EXTT25=
EXTT26=
PLAYORDER=
